<svg xmlns="http://www.w3.org/2000/svg" xmlns:xlink="http://www.w3.org/1999/xlink" width="500" zoomAndPan="magnify" viewBox="0 0 375 374.999991" height="500" preserveAspectRatio="xMidYMid meet" version="1.0"><defs><clipPath id="cb49192dd2"><path d="M 52 189 L 326 189 L 326 302.726562 L 52 302.726562 Z M 52 189 " clip-rule="nonzero"/></clipPath></defs><g clip-path="url(#cb49192dd2)"><path fill="#654c3e" d="M 59.046875 203.589844 L 59.042969 203.589844 L 59.1875 203.609375 C 73.890625 205.574219 88.277344 207.476562 107.886719 205.382812 C 127.71875 203.265625 152.933594 197.066406 178.492188 190.773438 C 178.699219 190.722656 178.910156 190.691406 179.125 190.675781 C 197.246094 189.542969 216.085938 188.339844 228.585938 190.570312 C 231.722656 191.128906 234.625 191.929688 237.089844 193.082031 C 244.558594 196.578125 247.851562 203.449219 244.4375 210.769531 C 242.152344 215.683594 237.066406 220.207031 229.769531 223.839844 C 219.511719 228.945312 203.933594 232.734375 190.890625 235.921875 C 182.246094 238.035156 174.777344 239.867188 170.082031 241.65625 C 166.226562 243.125 165.160156 244.242188 165.015625 244.492188 C 165.082031 244.375 165.160156 244.011719 165.042969 243.707031 C 165.03125 243.679688 165.023438 243.667969 165.023438 243.667969 C 165.410156 244.378906 167.925781 246.097656 173.707031 247.894531 C 175.878906 248.570312 178.269531 249.1875 180.878906 249.652344 C 190.792969 251.421875 204.0625 251.027344 220.226562 242.691406 C 230.433594 237.425781 241.804688 229.003906 253.421875 220.382812 C 264.742188 211.984375 276.320312 203.382812 286.753906 198 C 287.167969 197.789062 287.589844 197.574219 288 197.371094 C 298.996094 191.925781 309.027344 190.054688 315.976562 191.292969 C 321.648438 192.304688 326.835938 196.023438 325.65625 202.671875 C 325.511719 203.484375 325.273438 204.289062 324.953125 205.078125 C 322.03125 212.339844 310.539062 221.667969 299.652344 230.664062 C 293.3125 235.902344 286.796875 241.285156 281.1875 246.613281 C 276.640625 250.933594 272.664062 255.238281 268.75 259.476562 C 265.132812 263.398438 261.550781 267.285156 257.710938 270.929688 C 251.425781 276.902344 244.394531 282.292969 235.0625 286.507812 C 214.21875 295.921875 182.074219 299.285156 150.875 302.59375 C 149.886719 302.695312 148.902344 302.386719 148.148438 301.738281 C 134.304688 289.742188 121.371094 278.652344 106.773438 275.472656 C 106.253906 275.359375 105.734375 275.257812 105.210938 275.164062 C 90.945312 272.621094 74.757812 277.121094 57.480469 282.007812 C 55.574219 282.546875 53.589844 281.433594 53.050781 279.523438 C 52.511719 277.609375 53.621094 275.625 55.53125 275.082031 C 72.347656 270.328125 90.253906 265.191406 106.46875 268.082031 C 107.078125 268.1875 107.691406 268.308594 108.296875 268.441406 C 125.03125 272.085938 139.390625 284.640625 152.84375 296.292969 L 150.121094 295.4375 C 181.8125 292.078125 212.570312 288.777344 232.113281 279.949219 C 240.523438 276.148438 246.894531 271.289062 252.769531 265.710938 C 256.410156 262.253906 259.835938 258.542969 263.480469 254.59375 C 267.375 250.371094 271.507812 245.894531 276.25 241.390625 C 282.070312 235.859375 288.785156 230.316406 295.085938 225.113281 C 306.929688 215.328125 316.253906 207.46875 318.296875 202.386719 C 318.449219 202.003906 318.539062 201.679688 318.589844 201.410156 C 318.734375 200.578125 318.707031 199.089844 314.71875 198.378906 C 309.855469 197.511719 301.4375 198.742188 291.183594 203.820312 L 291.179688 203.820312 C 290.804688 204.007812 290.425781 204.199219 290.039062 204.398438 C 280.234375 209.457031 269.167969 217.652344 257.695312 226.164062 C 246.222656 234.675781 234.347656 243.496094 223.511719 249.085938 C 205.851562 258.195312 190.96875 258.757812 179.621094 256.734375 C 176.679688 256.210938 173.992188 255.515625 171.578125 254.765625 C 166.378906 253.148438 160.726562 250.800781 158.71875 247.109375 C 158.574219 246.839844 158.445312 246.558594 158.332031 246.265625 C 157.648438 244.464844 157.832031 242.570312 158.796875 240.898438 C 160.308594 238.269531 163.605469 236.425781 167.53125 234.929688 C 172.75 232.941406 180.75 230.996094 189.191406 228.933594 C 202.535156 225.671875 217.199219 222.066406 226.574219 217.394531 C 233.125 214.136719 236.605469 210.578125 237.933594 207.726562 C 239.355469 204.679688 238.640625 201.746094 234.054688 199.601562 C 232.34375 198.800781 230.105469 198.148438 227.328125 197.652344 C 215.882812 195.613281 198.089844 196.699219 179.574219 197.855469 L 180.207031 197.761719 C 154.8125 204.011719 129.070312 210.359375 108.644531 212.539062 C 88.121094 214.726562 73.003906 212.714844 58.238281 210.742188 L 58.097656 210.722656 C 56.128906 210.457031 54.75 208.648438 55.011719 206.679688 C 55.273438 204.710938 57.082031 203.328125 59.046875 203.589844 Z M 59.046875 203.589844 " fill-opacity="1" fill-rule="nonzero"/></g><path fill="#654c3e" d="M 182.484375 178.78125 C 182.835938 180.605469 184.535156 181.851562 186.375 181.632812 C 188.21875 181.410156 189.578125 179.800781 189.488281 177.941406 C 187.648438 139.910156 186.007812 98.273438 161.671875 82.816406 C 145.441406 72.507812 120.097656 74.417969 93.265625 79.570312 C 79.554688 82.207031 65.082031 85.78125 50.71875 89.324219 C 49.394531 89.652344 48.378906 90.710938 48.101562 92.050781 C 47.828125 93.390625 48.347656 94.765625 49.433594 95.589844 C 85.585938 122.964844 123.375 151.765625 145.609375 153.910156 C 148.289062 154.167969 150.800781 154.058594 153.132812 153.613281 C 167.324219 150.882812 172.371094 136.601562 170.164062 125.0625 C 169.410156 121.113281 167.804688 117.273438 165.304688 114.027344 C 154.453125 99.9375 127.777344 98.984375 104.316406 97.867188 C 102.363281 97.773438 100.707031 99.28125 100.617188 101.234375 C 100.523438 103.191406 102.027344 104.851562 103.980469 104.945312 C 129.28125 106.152344 151.367188 107.523438 159.703125 118.355469 C 161.457031 120.628906 162.648438 123.417969 163.21875 126.398438 C 164.996094 135.671875 160.75 144.933594 151.800781 146.652344 C 150.1875 146.960938 148.355469 147.054688 146.289062 146.855469 C 126.617188 144.957031 90.976562 118.164062 53.699219 89.9375 L 52.410156 96.203125 C 66.808594 92.652344 81.097656 89.125 94.597656 86.53125 C 121.761719 81.3125 144.332031 80.195312 157.886719 88.800781 C 178.347656 101.796875 180.488281 138.234375 182.425781 178.285156 L 189.429688 177.445312 C 189.0625 175.523438 187.207031 174.265625 185.292969 174.632812 C 183.375 175 182.117188 176.859375 182.484375 178.78125 Z M 182.484375 178.78125 " fill-opacity="1" fill-rule="nonzero"/><path fill="#654c3e" d="M 189.746094 178.777344 C 189.394531 180.601562 187.695312 181.847656 185.851562 181.625 C 184.011719 181.40625 182.652344 179.792969 182.742188 177.9375 C 184.582031 139.90625 186.222656 98.269531 210.558594 82.8125 C 226.789062 72.503906 252.132812 74.410156 278.960938 79.566406 C 292.675781 82.203125 307.148438 85.773438 321.507812 89.320312 C 322.832031 89.644531 323.851562 90.707031 324.125 92.046875 C 324.402344 93.386719 323.882812 94.761719 322.796875 95.585938 C 286.644531 122.957031 248.855469 151.761719 226.617188 153.90625 C 223.941406 154.164062 221.429688 154.054688 219.097656 153.605469 C 204.90625 150.878906 199.855469 136.597656 202.066406 125.058594 C 202.820312 121.109375 204.425781 117.265625 206.925781 114.019531 C 217.773438 99.933594 244.453125 98.980469 267.914062 97.859375 C 269.863281 97.769531 271.519531 99.277344 271.613281 101.230469 C 271.707031 103.1875 270.199219 104.847656 268.25 104.9375 C 242.949219 106.144531 220.863281 107.519531 212.523438 118.351562 C 210.773438 120.625 209.582031 123.410156 209.007812 126.394531 C 207.234375 135.667969 211.480469 144.925781 220.429688 146.648438 C 222.039062 146.957031 223.871094 147.050781 225.941406 146.851562 C 245.613281 144.953125 281.253906 118.160156 318.53125 89.933594 L 319.816406 96.199219 C 305.421875 92.648438 291.128906 89.121094 277.628906 86.527344 C 250.46875 81.304688 227.898438 80.191406 214.34375 88.796875 C 193.882812 101.792969 191.742188 138.230469 189.804688 178.28125 L 182.800781 177.441406 C 183.167969 175.519531 185.019531 174.261719 186.9375 174.628906 C 188.855469 174.996094 190.113281 176.855469 189.746094 178.777344 Z M 189.746094 178.777344 " fill-opacity="1" fill-rule="nonzero"/></svg>