<svg xmlns="http://www.w3.org/2000/svg" xmlns:xlink="http://www.w3.org/1999/xlink" width="2500" zoomAndPan="magnify" viewBox="0 0 1874.88 1124.99995" height="1500" preserveAspectRatio="xMidYMid meet" version="1.0"><defs><g/><clipPath id="bf2e6b4069"><path d="M 617.722656 112.527344 L 1239.433594 112.527344 L 1239.433594 734.238281 L 617.722656 734.238281 Z M 617.722656 112.527344 " clip-rule="nonzero"/></clipPath></defs><g clip-path="url(#bf2e6b4069)"><path fill="#000000" d="M 1169.238281 513.632812 C 1162.351562 513.632812 1155.511719 514.035156 1148.703125 514.703125 C 1155.582031 498.601562 1159.210938 481.222656 1159.210938 463.496094 L 1159.210938 413.355469 L 1109.074219 413.355469 C 1091.636719 413.355469 1074.667969 416.894531 1058.9375 423.453125 L 1058.9375 323.109375 C 1058.9375 306.523438 1045.4375 293.023438 1028.855469 293.023438 L 974.285156 293.023438 C 989.414062 280.230469 998.769531 261.339844 998.769531 240.621094 C 998.769531 227.003906 994.78125 213.808594 987.21875 202.457031 L 968.769531 174.78125 C 962.160156 164.871094 958.660156 153.320312 958.660156 141.417969 L 958.660156 132.582031 L 938.605469 132.582031 L 938.605469 141.417969 C 938.605469 157.300781 943.269531 172.683594 952.082031 185.921875 L 970.535156 213.597656 C 975.886719 221.628906 978.714844 230.984375 978.714844 240.621094 C 978.714844 256.976562 970.554688 271.765625 957.566406 280.703125 C 958.21875 277.632812 958.660156 274.496094 958.660156 271.253906 C 958.660156 264.265625 957.007812 257.257812 953.878906 251.019531 L 928.578125 200.410156 L 903.277344 251.019531 C 900.148438 257.265625 898.496094 264.265625 898.496094 271.253906 C 898.496094 274.496094 898.9375 277.632812 899.589844 280.703125 C 886.601562 271.765625 878.441406 256.976562 878.441406 240.621094 C 878.441406 230.972656 881.269531 221.617188 886.621094 213.585938 L 905.074219 185.910156 C 913.886719 172.683594 918.550781 157.300781 918.550781 141.417969 L 918.550781 112.527344 L 898.496094 112.527344 L 898.496094 141.417969 C 898.496094 153.332031 894.996094 164.871094 888.386719 174.789062 L 869.9375 202.464844 C 862.375 213.816406 858.386719 227.003906 858.386719 240.621094 C 858.386719 261.328125 867.742188 280.230469 882.871094 293.023438 L 828.300781 293.023438 C 811.714844 293.023438 798.21875 306.523438 798.21875 323.109375 L 798.21875 423.453125 C 782.484375 416.894531 765.519531 413.355469 748.082031 413.355469 L 697.945312 413.355469 L 697.945312 463.496094 C 697.945312 481.222656 701.574219 498.601562 708.453125 514.703125 C 701.644531 514.035156 694.804688 513.632812 687.914062 513.632812 L 617.722656 513.632812 L 617.722656 523.660156 C 617.722656 639.769531 712.191406 734.238281 828.300781 734.238281 L 1028.855469 734.238281 C 1144.964844 734.238281 1239.433594 639.769531 1239.433594 523.660156 L 1239.433594 513.632812 Z M 1139.15625 433.410156 L 1139.15625 463.496094 C 1139.15625 483.019531 1133.851562 501.980469 1124.125 518.726562 C 1099.75 524.082031 1076.523438 533.707031 1055.476562 547.234375 C 1057.742188 538.167969 1058.9375 528.824219 1058.9375 519.429688 C 1058.9375 497.007812 1052.269531 475.628906 1040.496094 457.398438 C 1059.96875 441.90625 1083.976562 433.410156 1109.074219 433.410156 Z M 978.714844 633.964844 C 978.714844 664.066406 963.492188 691.289062 938.605469 707.265625 L 938.605469 613.90625 L 918.550781 613.90625 L 918.550781 707.253906 C 893.652344 691.28125 878.441406 664.054688 878.441406 633.964844 L 858.386719 633.964844 C 858.386719 664.054688 870.75 691.84375 891.808594 711.765625 C 849.769531 702.199219 818.273438 664.597656 818.273438 619.703125 C 818.273438 588.035156 833.996094 558.644531 860.339844 541.085938 L 928.578125 495.601562 L 996.816406 541.085938 C 1023.15625 558.644531 1038.882812 588.035156 1038.882812 619.703125 C 1038.882812 664.597656 1007.382812 702.199219 965.347656 711.757812 C 986.40625 691.84375 998.769531 664.054688 998.769531 633.964844 Z M 818.273438 519.429688 C 818.273438 487.761719 833.996094 458.371094 860.339844 440.8125 L 928.578125 395.328125 L 996.816406 440.8125 C 1023.15625 458.371094 1038.882812 487.761719 1038.882812 519.429688 C 1038.882812 529.414062 1037.117188 539.28125 1034.046875 548.71875 C 1026.707031 539.464844 1018.054688 531.148438 1007.9375 524.402344 L 928.578125 471.496094 L 849.21875 524.402344 C 839.101562 531.148438 830.449219 539.453125 823.109375 548.71875 C 820.039062 539.28125 818.273438 529.414062 818.273438 519.429688 Z M 998.769531 323.109375 L 998.769531 418.019531 L 958.839844 391.394531 C 970.394531 387.195312 978.714844 376.203125 978.714844 363.21875 L 978.714844 323.109375 C 978.714844 317.574219 983.207031 313.082031 988.742188 313.082031 C 994.277344 313.082031 998.769531 317.574219 998.769531 323.109375 Z M 958.660156 323.109375 L 958.660156 363.21875 C 958.660156 368.753906 954.167969 373.246094 948.632812 373.246094 C 943.097656 373.246094 938.605469 368.753906 938.605469 363.21875 L 938.605469 313.082031 L 960.503906 313.082031 C 959.382812 316.230469 958.660156 319.578125 958.660156 323.109375 Z M 1038.882812 323.109375 L 1038.882812 423.382812 C 1038.882812 428.917969 1034.390625 433.410156 1028.855469 433.410156 C 1023.320312 433.410156 1018.828125 428.917969 1018.828125 423.382812 L 1018.828125 323.109375 C 1018.828125 319.578125 1018.105469 316.230469 1016.980469 313.082031 L 1028.855469 313.082031 C 1034.390625 313.082031 1038.882812 317.574219 1038.882812 323.109375 Z M 921.21875 259.996094 L 928.578125 245.253906 L 935.9375 260.003906 C 937.683594 263.472656 938.605469 267.363281 938.605469 271.253906 C 938.605469 279.308594 934.855469 286.679688 928.578125 291.378906 C 922.300781 286.679688 918.550781 279.308594 918.550781 271.253906 C 918.550781 267.363281 919.472656 263.472656 921.21875 259.996094 Z M 818.273438 323.109375 C 818.273438 317.574219 822.765625 313.082031 828.300781 313.082031 L 918.550781 313.082031 L 918.550781 363.21875 C 918.550781 367.78125 919.652344 372.074219 921.476562 375.953125 L 849.21875 424.125 C 841.679688 429.148438 834.921875 435.035156 828.894531 441.515625 C 825.464844 438.796875 821.933594 436.238281 818.273438 433.894531 Z M 718 463.496094 L 718 433.410156 L 748.082031 433.410156 C 773.179688 433.410156 797.1875 441.90625 816.660156 457.398438 C 804.886719 475.628906 798.21875 497.007812 798.21875 519.429688 C 798.21875 528.824219 799.414062 538.167969 801.679688 547.234375 C 780.632812 533.707031 757.40625 524.082031 733.03125 518.726562 C 723.304688 501.980469 718 483.019531 718 463.496094 Z M 828.300781 714.183594 C 726.613281 714.183594 643.273438 634.105469 638.039062 533.6875 L 687.914062 533.6875 C 731.386719 533.6875 773.351562 548.699219 807.082031 575.792969 C 801.386719 589.511719 798.21875 604.363281 798.21875 619.703125 C 798.21875 658.890625 818.023438 693.527344 848.136719 714.183594 Z M 1028.855469 714.183594 L 1009.019531 714.183594 C 1039.132812 693.527344 1058.9375 658.890625 1058.9375 619.703125 C 1058.9375 604.363281 1055.769531 589.511719 1050.070312 575.792969 C 1083.804688 548.699219 1125.769531 533.6875 1169.238281 533.6875 L 1219.117188 533.6875 C 1213.882812 634.105469 1130.542969 714.183594 1028.855469 714.183594 Z M 1028.855469 714.183594 " fill-opacity="1" fill-rule="nonzero"/></g><g fill="#000000" fill-opacity="1"><g transform="translate(258.525313, 928.774618)"><g><path d="M 3.386719 -16.09375 C 3.386719 -15.878906 3.597656 -15.457031 4.023438 -15.035156 C 4.660156 -14.1875 5.292969 -13.550781 5.503906 -13.128906 C 16.09375 -2.753906 36.84375 2.117188 51.242188 2.117188 C 69.875 2.117188 90.835938 -2.539062 98.882812 -20.75 C 100.789062 -24.773438 101.847656 -29.644531 101.847656 -34.089844 C 101.847656 -54.839844 84.0625 -65.429688 65.003906 -75.589844 C 60.347656 -78.132812 55.6875 -80.460938 51.242188 -83.214844 C 39.171875 -89.988281 26.679688 -99.09375 26.679688 -114.550781 C 26.679688 -128.738281 37.265625 -136.574219 50.183594 -136.574219 C 70.085938 -136.574219 86.601562 -113.707031 92.953125 -97.1875 L 96.765625 -97.1875 L 93.167969 -126.621094 C 92.953125 -127.257812 92.742188 -127.46875 92.53125 -127.679688 C 91.894531 -128.316406 91.261719 -128.949219 91.050781 -129.164062 C 82.578125 -136.574219 64.371094 -139.539062 52.933594 -139.539062 C 29.644531 -139.539062 5.929688 -127.890625 5.929688 -102.058594 C 5.929688 -81.308594 23.714844 -70.511719 42.347656 -60.769531 C 47.007812 -58.230469 51.664062 -55.898438 56.113281 -53.359375 C 67.332031 -47.429688 80.460938 -38.535156 80.460938 -24.351562 C 80.460938 -9.953125 68.816406 -1.058594 55.476562 -1.058594 C 33.242188 -1.058594 13.128906 -23.503906 10.164062 -44.675781 L 6.988281 -45.101562 L 3.175781 -16.515625 C 3.175781 -16.304688 3.175781 -16.304688 3.386719 -16.09375 Z M 3.386719 -16.09375 "/></g></g></g><g fill="#000000" fill-opacity="1"><g transform="translate(362.063454, 928.774618)"><g><path d="M 5.292969 -48.488281 C 5.292969 -20.328125 20.960938 2.117188 50.183594 2.117188 C 70.085938 2.117188 79.828125 -7.835938 88.296875 -24.351562 L 86.390625 -25.621094 C 80.039062 -17.152344 69.238281 -11.859375 58.863281 -11.859375 C 36.417969 -11.859375 28.160156 -35.359375 28.160156 -53.359375 L 28.160156 -56.324219 L 88.507812 -56.324219 L 88.507812 -56.957031 C 88.507812 -81.097656 73.898438 -99.730469 49.125 -99.730469 C 20.328125 -99.730469 5.292969 -76.015625 5.292969 -48.488281 Z M 28.585938 -61.191406 C 29.433594 -71.355469 34.726562 -96.554688 48.066406 -96.554688 C 61.191406 -96.554688 65.429688 -71.144531 65.851562 -61.191406 L 65.851562 -59.710938 L 28.585938 -59.710938 Z M 28.585938 -61.191406 "/></g></g></g><g fill="#000000" fill-opacity="1"><g transform="translate(456.073541, 928.774618)"><g><path d="M 2.539062 -87.027344 L 2.539062 -83.214844 C 9.738281 -82.789062 12.703125 -79.191406 12.703125 -71.570312 L 12.703125 -15.035156 C 12.703125 -7.410156 9.738281 -3.8125 2.539062 -3.597656 L 2.539062 0 L 44.464844 0 L 44.464844 -3.597656 C 37.476562 -3.8125 34.515625 -7.410156 34.515625 -15.035156 L 34.515625 -71.570312 C 34.515625 -80.25 40.019531 -88.929688 49.757812 -88.929688 C 57.59375 -88.929688 60.769531 -84.484375 63.523438 -80.460938 C 64.15625 -79.613281 65.003906 -78.554688 65.640625 -77.710938 C 66.273438 -76.863281 67.121094 -76.015625 67.96875 -75.378906 C 69.453125 -74.109375 71.355469 -73.261719 74.53125 -73.261719 C 80.25 -73.261719 85.332031 -76.863281 85.332031 -82.578125 C 85.332031 -85.121094 84.273438 -87.660156 83.003906 -89.988281 C 78.769531 -97.1875 70.722656 -99.941406 62.464844 -99.941406 C 52.089844 -99.941406 42.558594 -95.496094 37.265625 -86.8125 L 34.515625 -82.15625 L 34.515625 -97.1875 Z M 2.539062 -87.027344 "/></g></g></g><g fill="#000000" fill-opacity="1"><g transform="translate(541.825996, 928.774618)"><g><path d="M 5.292969 -48.488281 C 5.292969 -20.328125 20.960938 2.117188 50.183594 2.117188 C 70.085938 2.117188 79.828125 -7.835938 88.296875 -24.351562 L 86.390625 -25.621094 C 80.039062 -17.152344 69.238281 -11.859375 58.863281 -11.859375 C 36.417969 -11.859375 28.160156 -35.359375 28.160156 -53.359375 L 28.160156 -56.324219 L 88.507812 -56.324219 L 88.507812 -56.957031 C 88.507812 -81.097656 73.898438 -99.730469 49.125 -99.730469 C 20.328125 -99.730469 5.292969 -76.015625 5.292969 -48.488281 Z M 28.585938 -61.191406 C 29.433594 -71.355469 34.726562 -96.554688 48.066406 -96.554688 C 61.191406 -96.554688 65.429688 -71.144531 65.851562 -61.191406 L 65.851562 -59.710938 L 28.585938 -59.710938 Z M 28.585938 -61.191406 "/></g></g></g><g fill="#000000" fill-opacity="1"><g transform="translate(635.836083, 928.774618)"><g><path d="M 1.695312 -87.027344 L 1.695312 -83.214844 C 8.894531 -82.789062 11.859375 -79.191406 11.859375 -71.570312 L 11.859375 -15.035156 C 11.859375 -7.410156 8.894531 -3.8125 1.695312 -3.597656 L 1.695312 0 L 43.617188 0 L 43.617188 -3.597656 C 36.632812 -3.8125 33.667969 -7.410156 33.667969 -15.035156 L 33.667969 -71.570312 C 33.667969 -81.730469 43.40625 -94.4375 54.417969 -94.4375 C 67.332031 -94.4375 73.050781 -82.367188 73.050781 -71.570312 L 73.050781 -15.035156 C 73.050781 -7.410156 70.085938 -3.8125 62.886719 -3.597656 L 62.886719 0 L 104.8125 0 L 104.8125 -3.597656 C 97.613281 -3.8125 94.859375 -7.410156 94.859375 -15.035156 L 94.859375 -71.992188 C 94.859375 -91.050781 81.945312 -99.730469 63.734375 -99.730469 C 53.148438 -99.730469 42.558594 -96.976562 36.207031 -88.085938 L 33.667969 -84.273438 L 33.667969 -97.1875 Z M 1.695312 -87.027344 "/></g></g></g><g fill="#000000" fill-opacity="1"><g transform="translate(740.856347, 928.774618)"><g><path d="M 2.328125 -87.027344 L 2.328125 -83.214844 C 9.527344 -82.789062 12.492188 -79.191406 12.492188 -71.570312 L 12.492188 -15.035156 C 12.492188 -7.410156 9.527344 -3.8125 2.328125 -3.597656 L 2.328125 0 L 44.253906 0 L 44.253906 -3.597656 C 37.265625 -3.8125 34.300781 -7.410156 34.300781 -15.035156 L 34.300781 -97.1875 Z M 5.292969 -122.808594 C 5.292969 -114.765625 11.859375 -107.988281 19.691406 -107.988281 C 27.316406 -107.988281 34.300781 -114.976562 34.300781 -122.808594 C 34.300781 -130.644531 27.527344 -137.207031 19.691406 -137.207031 C 11.859375 -137.207031 5.292969 -130.644531 5.292969 -122.808594 Z M 5.292969 -122.808594 "/></g></g></g><g fill="#000000" fill-opacity="1"><g transform="translate(786.167535, 928.774618)"><g><path d="M -1.269531 -98.671875 L -1.269531 -95.070312 L 9.953125 -95.070312 L 9.953125 -18.421875 C 9.953125 -5.503906 16.9375 1.90625 29.855469 1.90625 C 39.382812 1.90625 46.582031 -2.117188 52.511719 -9.527344 L 50.605469 -11.859375 C 48.066406 -9.738281 44.675781 -8.046875 41.078125 -8.046875 C 33.878906 -8.046875 31.761719 -14.1875 31.761719 -19.691406 L 31.761719 -95.070312 L 51.453125 -95.070312 L 51.453125 -98.460938 L 31.761719 -98.460938 L 31.761719 -126.832031 C 24.984375 -114.550781 11.859375 -100.789062 -1.269531 -98.671875 Z M -1.269531 -98.671875 "/></g></g></g><g fill="#000000" fill-opacity="1"><g transform="translate(840.583298, 928.774618)"><g><path d="M 17.785156 48.488281 C 32.609375 48.488281 41.5 32.609375 47.429688 20.960938 C 50.605469 14.1875 53.570312 7.410156 56.746094 0.847656 L 93.800781 -78.132812 C 96.34375 -83.425781 103.328125 -93.589844 110.742188 -94.859375 L 110.742188 -98.460938 L 73.261719 -98.460938 L 73.261719 -95.070312 C 80.039062 -94.859375 90.203125 -92.742188 90.203125 -82.789062 C 90.203125 -80.671875 89.777344 -78.554688 88.929688 -76.652344 L 63.734375 -20.960938 L 39.382812 -82.789062 C 38.960938 -83.851562 38.535156 -84.695312 38.324219 -85.332031 C 37.902344 -86.390625 37.691406 -87.449219 37.691406 -88.71875 C 37.691406 -92.53125 40.019531 -94.4375 42.984375 -95.070312 L 42.984375 -98.460938 L -0.421875 -98.460938 L -0.421875 -95.070312 C 7.199219 -93.800781 14.1875 -85.121094 16.726562 -79.191406 L 50.605469 5.929688 L 50.394531 6.5625 C 48.699219 9.953125 45.3125 18.210938 41.078125 25.410156 C 37.265625 32.183594 31.972656 39.59375 26.46875 39.59375 C 23.714844 39.59375 22.019531 37.902344 21.175781 35.996094 C 20.117188 34.300781 19.691406 32.183594 19.480469 30.492188 C 18.421875 24.136719 15.246094 19.691406 8.894531 19.691406 C 2.964844 19.691406 -2.117188 24.136719 -2.117188 30.277344 C -2.117188 41.289062 7.199219 48.488281 17.785156 48.488281 Z M 17.785156 48.488281 "/></g></g></g><g fill="#000000" fill-opacity="1"><g transform="translate(948.567898, 928.774618)"><g/></g></g><g fill="#000000" fill-opacity="1"><g transform="translate(989.644389, 928.774618)"><g><path d="M 47.855469 2.117188 C 66.273438 2.117188 77.285156 -6.140625 85.332031 -21.808594 L 83.003906 -23.292969 C 77.496094 -15.457031 67.96875 -11.011719 58.652344 -11.011719 C 35.574219 -11.011719 26.46875 -35.359375 26.46875 -53.992188 C 26.46875 -66.488281 29.007812 -96.34375 46.160156 -96.34375 C 54.628906 -96.34375 58.441406 -88.507812 60.347656 -81.519531 C 61.191406 -79.191406 61.617188 -77.074219 62.253906 -75.167969 C 63.734375 -69.453125 67.332031 -66.0625 73.261719 -66.0625 C 79.191406 -66.0625 84.0625 -69.875 84.0625 -75.589844 C 84.0625 -91.683594 65.640625 -99.730469 51.03125 -99.730469 C 19.269531 -99.730469 3.8125 -79.828125 3.8125 -48.699219 C 3.8125 -20.117188 18.210938 2.117188 47.855469 2.117188 Z M 47.855469 2.117188 "/></g></g></g><g fill="#000000" fill-opacity="1"><g transform="translate(1078.572851, 928.774618)"><g><path d="M 36.417969 1.90625 C 44.675781 1.90625 52.089844 -0.210938 57.804688 -6.140625 L 59.289062 -7.410156 L 60.132812 -5.71875 C 62.675781 -1.058594 67.332031 1.058594 72.628906 1.058594 C 80.039062 1.058594 86.601562 -1.058594 91.050781 -6.5625 L 89.355469 -8.679688 C 88.085938 -7.835938 86.601562 -7.199219 84.910156 -7.199219 C 82.15625 -7.199219 80.886719 -9.105469 80.460938 -10.796875 C 80.039062 -11.644531 80.039062 -12.703125 80.039062 -13.550781 C 80.039062 -14.398438 80.039062 -15.035156 80.039062 -15.878906 L 80.039062 -69.453125 C 80.039062 -90.625 66.273438 -99.730469 45.734375 -99.730469 C 29.007812 -99.730469 8.894531 -93.378906 8.894531 -74.53125 C 8.894531 -70.085938 14.609375 -67.96875 19.480469 -67.96875 C 24.5625 -67.96875 30.703125 -70.296875 30.703125 -74.746094 C 30.703125 -83.425781 32.609375 -96.554688 45.3125 -96.554688 C 52.089844 -96.554688 55.265625 -92.53125 56.746094 -87.449219 C 58.230469 -83.636719 58.230469 -76.863281 58.230469 -72.628906 L 58.230469 -57.171875 L 56.113281 -58.015625 C 51.664062 -59.921875 46.582031 -60.558594 41.5 -60.558594 C 20.539062 -60.558594 3.597656 -48.699219 3.597656 -26.679688 C 3.597656 -7.835938 18.632812 1.90625 36.417969 1.90625 Z M 26.46875 -25.832031 C 26.46875 -40.65625 32.820312 -55.6875 50.394531 -55.6875 C 52.722656 -55.6875 55.054688 -55.476562 57.171875 -54.628906 L 58.230469 -54.207031 L 58.230469 -15.246094 C 58.230469 -7.410156 49.125 -2.328125 42.773438 -2.328125 C 29.21875 -2.328125 26.46875 -16.09375 26.46875 -25.832031 Z M 26.46875 -25.832031 "/></g></g></g><g fill="#000000" fill-opacity="1"><g transform="translate(1171.524265, 928.774618)"><g><path d="M 1.695312 -87.027344 L 1.695312 -83.214844 C 8.894531 -82.789062 11.859375 -79.191406 11.859375 -71.570312 L 11.859375 -15.035156 C 11.859375 -7.410156 8.894531 -3.8125 1.695312 -3.597656 L 1.695312 0 L 43.617188 0 L 43.617188 -3.597656 C 36.632812 -3.8125 33.667969 -7.410156 33.667969 -15.035156 L 33.667969 -71.570312 C 33.667969 -81.730469 43.40625 -94.4375 54.417969 -94.4375 C 67.332031 -94.4375 73.050781 -82.367188 73.050781 -71.570312 L 73.050781 -15.035156 C 73.050781 -7.410156 70.085938 -3.8125 62.886719 -3.597656 L 62.886719 0 L 104.8125 0 L 104.8125 -3.597656 C 97.613281 -3.8125 94.859375 -7.410156 94.859375 -15.035156 L 94.859375 -71.992188 C 94.859375 -91.050781 81.945312 -99.730469 63.734375 -99.730469 C 53.148438 -99.730469 42.558594 -96.976562 36.207031 -88.085938 L 33.667969 -84.273438 L 33.667969 -97.1875 Z M 1.695312 -87.027344 "/></g></g></g><g fill="#000000" fill-opacity="1"><g transform="translate(1276.544588, 928.774618)"><g><path d="M 41.5 -0.210938 C 50.605469 -0.210938 60.347656 -3.386719 65.640625 -10.796875 L 68.390625 -14.609375 L 68.390625 -0.636719 L 100.367188 -10.585938 L 100.367188 -14.609375 C 93.167969 -14.820312 90.203125 -18.632812 90.203125 -26.257812 L 90.203125 -147.582031 L 58.441406 -137.632812 L 58.441406 -133.820312 C 65.429688 -133.398438 68.390625 -129.585938 68.390625 -122.175781 L 68.390625 -93.167969 L 66.0625 -95.285156 C 61.40625 -99.09375 53.78125 -99.941406 47.429688 -99.941406 C 16.726562 -99.941406 5.082031 -78.34375 5.082031 -49.335938 C 5.082031 -24.136719 13.976562 -0.210938 41.5 -0.210938 Z M 53.570312 -96.34375 C 59.289062 -96.34375 63.945312 -93.378906 67.121094 -88.929688 C 67.121094 -88.71875 67.546875 -88.085938 67.757812 -88.085938 C 68.179688 -87.449219 68.390625 -86.8125 68.390625 -85.96875 L 68.390625 -19.902344 C 68.390625 -19.058594 67.96875 -18.421875 67.757812 -17.996094 C 67.546875 -17.785156 67.332031 -17.574219 67.121094 -17.152344 C 63.523438 -11.644531 57.382812 -6.5625 50.183594 -6.5625 C 30.914062 -6.5625 28.160156 -32.820312 28.160156 -45.3125 C 28.160156 -60.558594 33.242188 -96.34375 53.570312 -96.34375 Z M 53.570312 -96.34375 "/></g></g></g><g fill="#000000" fill-opacity="1"><g transform="translate(1377.118467, 928.774618)"><g><path d="M 1.480469 -137.632812 L 1.480469 -133.820312 C 8.679688 -133.398438 11.644531 -129.796875 11.644531 -122.175781 L 11.644531 -15.035156 C 11.644531 -7.410156 8.679688 -3.8125 1.480469 -3.597656 L 1.480469 0 L 43.40625 0 L 43.40625 -3.597656 C 36.417969 -3.8125 33.457031 -7.410156 33.457031 -15.035156 L 33.457031 -147.582031 Z M 1.480469 -137.632812 "/></g></g></g><g fill="#000000" fill-opacity="1"><g transform="translate(1422.006163, 928.774618)"><g><path d="M 5.292969 -48.488281 C 5.292969 -20.328125 20.960938 2.117188 50.183594 2.117188 C 70.085938 2.117188 79.828125 -7.835938 88.296875 -24.351562 L 86.390625 -25.621094 C 80.039062 -17.152344 69.238281 -11.859375 58.863281 -11.859375 C 36.417969 -11.859375 28.160156 -35.359375 28.160156 -53.359375 L 28.160156 -56.324219 L 88.507812 -56.324219 L 88.507812 -56.957031 C 88.507812 -81.097656 73.898438 -99.730469 49.125 -99.730469 C 20.328125 -99.730469 5.292969 -76.015625 5.292969 -48.488281 Z M 28.585938 -61.191406 C 29.433594 -71.355469 34.726562 -96.554688 48.066406 -96.554688 C 61.191406 -96.554688 65.429688 -71.144531 65.851562 -61.191406 L 65.851562 -59.710938 L 28.585938 -59.710938 Z M 28.585938 -61.191406 "/></g></g></g><g fill="#000000" fill-opacity="1"><g transform="translate(1516.01625, 928.774618)"><g><path d="M 4.445312 -10.585938 C 13.761719 -1.269531 28.160156 2.117188 41.078125 2.117188 C 54.839844 2.117188 70.085938 -1.90625 77.074219 -13.976562 C 79.191406 -17.363281 80.460938 -21.597656 80.460938 -25.410156 C 80.460938 -39.808594 68.179688 -47.007812 54.628906 -54.417969 C 51.242188 -56.324219 47.855469 -58.015625 44.675781 -59.921875 C 36.207031 -65.003906 27.101562 -71.992188 27.101562 -83.003906 C 27.101562 -91.261719 33.242188 -96.554688 41.078125 -96.554688 C 55.054688 -96.554688 68.179688 -80.460938 73.261719 -69.027344 L 76.226562 -69.027344 L 76.226562 -84.695312 C 75.804688 -85.121094 73.261719 -88.085938 73.261719 -88.085938 C 65.214844 -95.917969 53.992188 -99.730469 42.773438 -99.730469 C 24.351562 -99.730469 5.71875 -92.320312 5.71875 -71.992188 C 5.71875 -56.746094 18.632812 -47.640625 32.394531 -39.808594 C 35.785156 -37.691406 39.171875 -35.996094 42.347656 -34.089844 C 49.757812 -29.855469 60.558594 -23.714844 60.558594 -14.1875 C 60.558594 -4.660156 49.972656 -1.058594 43.195312 -1.058594 C 29.007812 -1.058594 10.164062 -16.515625 9.105469 -31.761719 L 6.988281 -31.761719 L 3.8125 -11.644531 C 4.023438 -11.222656 4.234375 -11.011719 4.445312 -10.585938 Z M 4.445312 -10.585938 "/></g></g></g></svg>