<svg xmlns="http://www.w3.org/2000/svg" xmlns:xlink="http://www.w3.org/1999/xlink" width="500" zoomAndPan="magnify" viewBox="0 0 375 374.999991" height="500" preserveAspectRatio="xMidYMid meet" version="1.0"><path fill="#654c3e" d="M 298.921875 154.726562 C 283.09375 210.691406 220.132812 236.84375 163.238281 224.640625 C 126.105469 216.675781 106.964844 191.683594 90.433594 157.316406 C 96.585938 158.941406 116.222656 157.878906 131.222656 155.332031 C 131.535156 156.335938 157.785156 174.914062 195.394531 174.738281 C 227.371094 174.589844 258.75 161.324219 273.160156 131.957031 C 274.253906 129.730469 275.453125 127.46875 277.785156 126.34375 C 279.675781 125.425781 294.15625 121.285156 300.453125 120.34375 C 304.59375 129.359375 301.636719 145.132812 298.921875 154.726562 Z M 251.949219 217.070312 C 180.757812 258.972656 68.53125 224.332031 85.757812 164.792969 C 86.5625 162.007812 87.65625 159.324219 89.089844 156.808594 C 89.101562 156.839844 89.113281 156.875 89.128906 156.90625 C 89.128906 156.953125 89.148438 157 89.179688 157.035156 C 102.894531 190.59375 123.3125 218.089844 158.367188 226.6875 C 200.269531 236.972656 250.09375 225.542969 279.78125 192.882812 C 293.742188 177.53125 273.105469 204.621094 251.949219 217.070312 Z M 128.429688 151.507812 C 129.101562 151.371094 131.203125 154.109375 130.488281 154.226562 C 109.039062 157.886719 94.25 156.414062 90.089844 156.605469 C 90.085938 156.589844 90.078125 156.574219 90.074219 156.5625 C 98.101562 156.664062 122.320312 152.746094 128.429688 151.507812 Z M 257.960938 135.320312 C 257.933594 132.996094 260.34375 132.347656 261.472656 134.328125 C 262.574219 136.261719 260.8125 139.355469 259.84375 141.234375 C 259.59375 139.242188 257.988281 137.425781 257.960938 135.320312 Z M 135.125 153.820312 C 136.710938 154.132812 138.34375 154.238281 139.953125 154.191406 C 140.796875 156.503906 142.039062 157.539062 143.433594 159.402344 C 143.917969 157.566406 143.847656 155.695312 143.570312 153.804688 C 144.363281 153.648438 144.925781 153.515625 145.722656 153.367188 C 145.996094 154.632812 146.636719 155.902344 147.1875 156.878906 C 148.09375 158.492188 149.011719 159.730469 151.734375 161.8125 C 151.398438 161.554688 151.609375 158.335938 151.582031 157.859375 C 151.484375 156.339844 151.359375 154.816406 151.070312 153.320312 C 151.640625 155.773438 153.996094 158.242188 155.144531 159.976562 C 155.464844 160.464844 156.355469 160.171875 156.136719 159.558594 C 155.785156 158.542969 156.519531 157.25 156.695312 156.238281 C 156.832031 155.480469 156.878906 154.738281 156.835938 154.007812 C 157.402344 154.136719 157.960938 154.25 158.53125 154.34375 C 159.371094 155.902344 160.507812 157.320312 161.457031 158.8125 C 161.578125 158.996094 161.75 159.203125 161.960938 159.164062 C 162.171875 159.128906 162.261719 158.886719 162.316406 158.683594 C 162.601562 157.574219 162.992188 156.269531 162.992188 155.117188 C 163.015625 154.886719 163.046875 154.644531 163.078125 154.382812 C 163.660156 154.300781 164.234375 154.183594 164.804688 154.050781 C 164.609375 154.097656 166.304688 157.582031 166.46875 157.878906 C 167.015625 158.867188 167.632812 160.148438 168.609375 160.765625 C 168.640625 160.714844 168.667969 160.65625 168.691406 160.601562 C 169.136719 160.789062 169.378906 161.800781 169.625 162.253906 C 169.972656 162.890625 170.371094 163.496094 170.765625 164.105469 C 166.179688 161.570312 162.292969 165.558594 157.78125 162.546875 C 157.78125 162.546875 157.808594 162.585938 157.878906 162.675781 C 157.941406 162.769531 158.050781 162.902344 158.226562 163.074219 C 158.570312 163.417969 159.234375 163.910156 160.375 164.210938 C 164.632812 165.3125 167.273438 162.65625 171.503906 165.894531 C 172.117188 166.351562 172.691406 166.828125 173.285156 167.257812 C 177.730469 170.402344 183.050781 171.035156 186.292969 170.007812 C 182.296875 169.847656 178.417969 169.9375 172.796875 165.507812 C 174.371094 163.453125 175.496094 160.964844 175.246094 158.320312 C 175.25 158.332031 175.261719 158.34375 175.273438 158.34375 C 175.292969 158.464844 175.316406 158.574219 175.339844 158.695312 C 175.410156 159.035156 175.777344 159.113281 176.039062 158.976562 C 176.257812 162.363281 178.75 164.222656 180.605469 166.734375 C 181.847656 164.21875 183.132812 161.742188 182.671875 158.804688 C 182.265625 156.214844 180.097656 154.613281 177.992188 155.378906 C 178.46875 154.085938 178.757812 152.722656 178.742188 151.347656 C 179.699219 151.441406 180.667969 151.570312 181.636719 151.703125 C 181.953125 152.566406 183.273438 155.359375 183.539062 155.898438 C 183.222656 157.617188 183.679688 159.523438 184.125 161.164062 C 184.558594 162.757812 185.097656 165.316406 186.527344 166.347656 C 187.160156 165.03125 188.078125 163.96875 188.601562 162.59375 C 189.871094 159.253906 189.304688 153.816406 185.699219 153.816406 C 185.996094 153.324219 186.28125 152.800781 186.515625 152.253906 C 187.585938 152.300781 188.597656 152.21875 189.574219 152.042969 C 190.011719 153.191406 190.609375 154.273438 191.421875 155.179688 C 190.957031 158.5 193.359375 161.636719 194.769531 164.613281 C 195.324219 163.53125 197.730469 160.773438 196.964844 156.003906 C 196.738281 154.550781 195.917969 152.230469 194.152344 152.167969 C 194.160156 151.824219 194.117188 151.308594 194.035156 150.691406 C 194.5 150.507812 194.957031 150.3125 195.421875 150.113281 C 195.414062 150.117188 197.210938 153.039062 197.507812 153.351562 C 197.929688 152.746094 198.523438 152.171875 198.855469 151.527344 C 199.023438 151.207031 199.652344 148.382812 199.695312 148.371094 C 200.707031 148.027344 201.726562 147.757812 202.742188 147.546875 C 203.085938 148.648438 203.585938 149.695312 204.175781 150.683594 C 204.523438 151.273438 204.898438 152.601562 205.605469 152.796875 C 206.28125 152.976562 207.308594 147.433594 207.359375 146.90625 C 208.816406 146.773438 210.289062 146.710938 211.789062 146.652344 C 212.84375 148.835938 214.425781 150.992188 215.300781 152.042969 C 215.300781 152.273438 215.445312 152.4375 215.671875 152.453125 C 215.765625 152.53125 215.898438 152.484375 215.957031 152.390625 C 216.082031 152.320312 216.167969 152.195312 216.160156 152.03125 C 216.125 150.140625 216.820312 148.074219 217.015625 146.074219 C 218.238281 145.757812 219.417969 145.316406 220.582031 144.832031 C 221.507812 146.574219 222.867188 148.257812 224.046875 149.75 C 225.003906 150.964844 224.953125 147.949219 224.933594 147.558594 C 224.914062 147.128906 224.925781 143.066406 225.039062 143.027344 C 225.402344 142.894531 225.765625 142.761719 226.144531 142.644531 C 226.671875 142.472656 227.207031 142.332031 227.746094 142.214844 C 228.082031 143.378906 228.625 144.570312 229.386719 145.496094 C 229.054688 145.402344 228.707031 145.355469 228.359375 145.367188 C 225.410156 145.46875 226.046875 148.535156 226.8125 150.445312 C 227.34375 151.777344 228.058594 153.039062 228.839844 154.238281 C 229.285156 154.921875 230.585938 157.570312 231.484375 156.671875 C 232.132812 156.019531 233.28125 151.984375 232.703125 149.183594 C 232.53125 148.332031 232.054688 147.46875 231.402344 146.773438 C 231.683594 146.464844 232.019531 142.382812 232.03125 141.550781 C 233.011719 141.449219 233.988281 141.367188 234.96875 141.285156 C 235.335938 142.308594 235.882812 143.375 236.535156 144.285156 C 235.523438 143.609375 234.210938 143.445312 233.265625 144.382812 C 232.511719 145.125 232.65625 146.210938 233.070312 147.09375 C 233.613281 148.261719 234.546875 149.273438 235.253906 150.347656 C 235.492188 150.714844 237.597656 154.605469 238.003906 152.800781 C 238.199219 151.957031 238.058594 150.757812 238.125 149.859375 C 238.203125 148.808594 238.367188 147.578125 238.003906 146.550781 C 238.011719 146.523438 238.015625 146.492188 238.007812 146.460938 C 237.972656 146.199219 237.890625 145.945312 237.785156 145.707031 C 238.691406 147.703125 239.1875 143.082031 239.128906 140.765625 C 239.53125 140.703125 239.933594 140.621094 240.332031 140.523438 C 240.832031 141.089844 241.347656 141.550781 241.816406 141.839844 C 240.628906 144.925781 242.804688 148.882812 244.503906 151.484375 C 245.050781 152.320312 245.296875 151.085938 245.433594 150.714844 C 246.40625 148.136719 247.527344 145.699219 246.875 142.378906 C 247.035156 142.429688 247.214844 142.390625 247.296875 142.207031 C 247.683594 141.308594 248.15625 139.265625 248.3125 137.171875 C 248.394531 137.121094 248.476562 137.078125 248.570312 137.023438 C 248.695312 137.429688 248.851562 137.839844 249.066406 138.203125 C 249.125 138.652344 249.296875 139.039062 249.566406 139.378906 C 246.730469 139.726562 246.386719 145.804688 249.675781 150.097656 C 249.503906 149.875 250.710938 147.933594 250.851562 147.648438 C 251.847656 145.59375 252.988281 143.101562 251.902344 140.832031 C 252.042969 141.128906 252.191406 141.417969 252.328125 141.703125 C 252.757812 142.574219 253.140625 143.507812 253.632812 144.339844 C 255.023438 146.695312 256.230469 142.539062 256.222656 139.785156 C 256.371094 139.777344 256.507812 139.695312 256.535156 139.507812 C 256.65625 138.691406 257.101562 137.097656 257.402344 135.382812 C 257.488281 136.789062 258.03125 138.089844 258.519531 139.394531 C 258.957031 140.550781 258.992188 142.050781 259.816406 143.003906 C 260.371094 141.492188 261.933594 140.546875 262.453125 137.027344 C 263.175781 132.136719 258.636719 131.226562 257.601562 133.976562 C 257.710938 133.011719 257.734375 132.0625 257.585938 131.269531 C 258.75 130.527344 259.914062 129.804688 261.109375 129.113281 C 260.753906 129.320312 261.890625 131.445312 262.003906 131.6875 C 262.230469 132.175781 262.5 133.148438 262.914062 133.5 C 263.753906 134.214844 263.925781 133.367188 264.066406 132.808594 C 264.277344 131.984375 264.613281 131.042969 264.808594 130.160156 C 265.066406 128.988281 264.660156 127.273438 265.300781 126.222656 C 266.402344 124.414062 269.242188 124.464844 271.03125 124.769531 C 272.300781 124.984375 274 125.398438 274.050781 126.75 C 274.15625 129.636719 271.824219 132.390625 270.46875 134.792969 C 247.453125 175.566406 185.039062 185.355469 138.652344 158.347656 C 137.207031 157.507812 132.542969 154.945312 131.886719 154.378906 C 131.679688 154.199219 131.410156 152.710938 131.222656 152.464844 C 131.429688 152.734375 134.609375 153.722656 135.125 153.820312 Z M 140.371094 151.664062 C 140.457031 150.578125 143.179688 148.609375 142.921875 157.355469 C 141.976562 156.164062 141.035156 154.824219 140.667969 153.285156 C 140.558594 152.839844 140.328125 152.203125 140.371094 151.664062 Z M 149.0625 150.382812 C 150.128906 151.148438 150.519531 151.988281 150.59375 153.21875 C 150.730469 155.523438 150.882812 157.773438 150.96875 160.0625 C 150.328125 159.292969 149.488281 158.617188 148.953125 157.875 C 147.703125 156.160156 146.863281 153.953125 146.796875 153.171875 C 146.710938 151.621094 147.574219 149.316406 149.0625 150.382812 Z M 155.863281 152.40625 C 156.527344 154.542969 155.9375 156.035156 155.125 158.027344 C 148.773438 151.28125 154.199219 147.054688 155.863281 152.40625 Z M 161.925781 149.0625 C 162.203125 150.441406 162.234375 150.414062 162.167969 152.335938 C 162.113281 154.292969 161.402344 157.269531 161.375 157.238281 C 160.378906 156.296875 159.664062 154.738281 159.121094 153.398438 C 158.84375 152.855469 158.335938 151.117188 158.238281 150.011719 C 157.574219 147.289062 161.078125 146.257812 161.925781 149.0625 Z M 166.527344 148.945312 C 168.363281 147.695312 169.226562 150.628906 169.324219 152.648438 C 169.574219 155.6875 168.066406 157.097656 168.203125 159.289062 C 166.90625 157.316406 165.828125 155.632812 165.429688 153.054688 C 165.160156 151.332031 165.335938 149.757812 166.527344 148.945312 Z M 169.957031 155.664062 C 172.46875 152.683594 176.6875 158.292969 172.121094 164.988281 C 172.101562 164.972656 171.972656 164.882812 171.929688 164.851562 C 170.988281 163.226562 169.546875 160.226562 169.367188 158.074219 C 169.589844 157.285156 169.796875 156.480469 169.957031 155.664062 Z M 170.207031 152.351562 C 171.039062 152.0625 171.710938 151.847656 172.367188 151.6875 C 172.648438 152.714844 173.050781 153.761719 173.46875 154.726562 C 172.40625 153.828125 171.109375 153.761719 170.167969 154.246094 C 170.230469 153.609375 170.25 152.980469 170.207031 152.351562 Z M 179.148438 156.230469 C 181.578125 156.242188 181.824219 159.269531 181.625 161.046875 C 181.4375 162.707031 180.863281 164.191406 180.492188 165.777344 C 176.535156 160.324219 176.410156 156.222656 179.148438 156.230469 Z M 172.613281 148.703125 C 172.851562 147.449219 174.171875 146.613281 175.441406 146.777344 C 177.574219 147.050781 178.601562 152.921875 175.871094 157.558594 C 175.773438 157.496094 175.664062 157.484375 175.558594 157.507812 C 175.136719 156.039062 174.363281 154.671875 173.785156 153.261719 C 173.253906 151.96875 172.339844 150.117188 172.613281 148.703125 Z M 186.898438 155.027344 C 188.628906 155.800781 188.792969 158.792969 188.542969 160.328125 C 188.265625 162.070312 187.367188 163.652344 186.425781 165.144531 C 186.160156 164.242188 181.761719 152.738281 186.898438 155.027344 Z M 182.097656 147.730469 C 183.308594 145.195312 187.195312 146.824219 185.808594 151.207031 C 185.394531 152.46875 184.660156 153.347656 183.953125 154.453125 C 182.800781 152.6875 181.039062 149.929688 182.097656 147.730469 Z M 189.550781 146.917969 C 190.96875 143.6875 193.179688 147.691406 193.320312 150.964844 C 193.363281 151.535156 193.351562 152.296875 193.351562 152.296875 C 192.378906 152.609375 191.816406 153.523438 191.554688 154.550781 C 190.722656 152.574219 189.910156 150.863281 189.605469 148.898438 C 189.519531 148.375 189.320312 147.433594 189.550781 146.917969 Z M 196.476562 158.394531 C 196.382812 160.140625 195.914062 161.707031 195.046875 163.175781 C 195.015625 163.164062 194.992188 163.152344 194.964844 163.148438 C 194.113281 161.660156 193.132812 160.324219 192.617188 158.628906 C 192.144531 157.097656 191.464844 154.066406 193.414062 153.179688 C 195.9375 152.03125 196.542969 157.113281 196.476562 158.394531 Z M 195.191406 145.742188 C 195.59375 141.96875 201.488281 146.070312 197.523438 152.28125 C 197.449219 152.257812 197.359375 152.265625 197.28125 152.289062 C 196.222656 150.367188 194.917969 148.292969 195.191406 145.742188 Z M 205.085938 142.710938 C 207.894531 143.921875 206.132812 148.9375 205.324219 151.75 C 204.054688 149.402344 203.609375 148.492188 203.203125 146.410156 C 202.851562 144.402344 202.808594 141.71875 205.085938 142.710938 Z M 214.667969 141.792969 C 216.195312 142.761719 216.242188 144.507812 216.007812 146.304688 L 216.003906 146.304688 C 215.792969 147.917969 215.308594 149.628906 215.253906 151.046875 C 214.597656 150.019531 213.53125 148.464844 212.558594 146.628906 L 212.554688 146.628906 C 212.238281 146.058594 211.964844 145.507812 211.796875 144.886719 C 211.3125 143.066406 212.683594 140.539062 214.667969 141.792969 Z M 223.105469 139.496094 C 223.960938 140.140625 224.144531 141.339844 224.242188 142.367188 C 224.25 142.453125 224.3125 143.210938 224.3125 143.296875 C 224.453125 145.15625 224.324219 147.0625 224.007812 148.894531 C 222.421875 146.5625 220.503906 144.132812 220.480469 141.308594 C 220.15625 139.648438 222.261719 138.867188 223.105469 139.496094 Z M 230.8125 155.765625 C 229.972656 154.605469 229.109375 153.472656 228.449219 152.183594 C 227.925781 151.160156 225.363281 145.144531 229.320312 146.527344 C 233.175781 147.875 231.695312 152.71875 230.8125 155.765625 Z M 231.273438 140.609375 C 231.398438 142.390625 230.945312 144.484375 230.761719 146.109375 C 229.828125 144.511719 228.789062 143.4375 228.261719 141.160156 C 228.148438 140.6875 228.070312 140.214844 228.054688 139.75 C 227.992188 137.644531 230.96875 136.253906 231.273438 140.609375 Z M 237.316406 152.40625 C 236.644531 151.386719 235.992188 150.355469 235.355469 149.316406 C 234.78125 148.371094 233.269531 146.757812 233.566406 145.519531 C 233.859375 144.300781 236.175781 143.980469 237.578125 146.640625 C 237.582031 146.644531 237.582031 146.644531 237.582031 146.644531 C 237.683594 148.371094 237.28125 150.84375 237.316406 152.40625 Z M 235.445312 137.464844 C 237.046875 135.261719 238.132812 137.71875 238.40625 140.367188 C 238.425781 140.539062 238.429688 140.710938 238.4375 140.882812 C 238.484375 142.183594 238.230469 143.457031 238.121094 144.738281 C 237.726562 144.152344 233.96875 139.519531 235.445312 137.464844 Z M 239.617188 139.628906 C 239.441406 139.667969 239.261719 139.703125 239.078125 139.730469 C 239.046875 139.328125 238.992188 138.925781 238.929688 138.546875 C 239.136719 138.925781 239.371094 139.289062 239.617188 139.628906 Z M 239.839844 133.621094 C 241.21875 133.199219 242.335938 134.132812 242.683594 135.394531 C 242.863281 136.027344 242.863281 136.710938 242.855469 137.359375 C 242.855469 140.28125 242.945312 140.238281 242.945312 140.238281 C 242.574219 140.53125 242.273438 140.917969 242.039062 141.347656 C 239.175781 139.199219 237.71875 134.269531 239.839844 133.621094 Z M 243.578125 140.707031 C 247.648438 139.402344 245.628906 147.898438 244.644531 150.824219 C 243.214844 147.890625 240.316406 142.089844 243.347656 140.796875 C 243.433594 140.792969 243.519531 140.761719 243.578125 140.707031 Z M 243.648438 139.496094 C 244.097656 139.320312 244.535156 139.132812 244.96875 138.929688 C 245.136719 139.414062 245.1875 139.5 245.339844 139.886719 C 244.816406 139.628906 244.199219 139.640625 243.644531 139.84375 C 243.644531 139.726562 243.644531 139.613281 243.648438 139.496094 Z M 247.316406 136.511719 L 247.308594 136.511719 C 247.28125 137.097656 247.09375 140.039062 246.839844 141.089844 C 246.496094 139.710938 245.679688 138.257812 245.308594 136.941406 C 245.003906 135.910156 244.714844 134.8125 244.75 133.726562 C 244.8125 131.195312 247.660156 130.738281 247.316406 136.511719 Z M 249.503906 148.859375 C 249.25 148.136719 247.46875 144.117188 248.214844 141.871094 C 248.582031 140.761719 250.132812 139.457031 251.019531 141.492188 C 252.023438 143.804688 250.1875 146.492188 249.503906 148.859375 Z M 250.90625 133.148438 C 252.148438 133.648438 251.707031 135.371094 251.953125 136.386719 C 251.976562 136.480469 252.035156 136.539062 252.105469 136.5625 C 250.832031 137.570312 251.730469 138.714844 251.328125 139.847656 C 250.3125 138.25 248.953125 136.894531 248.90625 134.773438 C 248.882812 133.777344 249.773438 132.691406 250.90625 133.148438 Z M 253.476562 136.976562 C 256.628906 137.492188 254.449219 143.144531 254.171875 144.128906 C 253.570312 142.730469 252.667969 141.160156 252.296875 140.183594 C 251.980469 139.347656 251.214844 136.605469 253.476562 136.976562 Z M 253.367188 133.980469 C 253.605469 134.941406 253.949219 135.582031 254.40625 136.335938 C 253.828125 136.128906 253.074219 136.0625 252.476562 136.335938 C 252.625 135.839844 252.613281 135.199219 252.472656 134.558594 C 252.769531 134.363281 253.066406 134.167969 253.367188 133.980469 Z M 254.972656 130.019531 C 255.90625 129.625 256.359375 130.148438 256.578125 130.808594 C 257.210938 132.636719 256.285156 136.472656 256.03125 137.8125 C 256.003906 137.746094 255.980469 137.675781 255.949219 137.613281 C 256.015625 137.535156 256.042969 137.425781 255.964844 137.300781 C 255.097656 135.875 253.972656 134.292969 253.972656 132.410156 C 253.949219 131.558594 254.101562 130.390625 254.972656 130.019531 Z M 261.492188 126.109375 C 262.078125 124.300781 264.09375 124.589844 264.441406 126.320312 C 264.746094 127.703125 263.714844 131.140625 263.039062 132.519531 C 262.273438 130.777344 260.90625 127.941406 261.492188 126.109375 Z M 270.496094 123.332031 C 286.105469 120.640625 297.726562 115.925781 299.683594 118.773438 C 296.417969 120.101562 276.460938 125.460938 275.871094 125.667969 C 274.476562 124.035156 271.675781 123.488281 269.117188 123.785156 C 270.015625 123.457031 270.070312 123.457031 270.496094 123.332031 Z M 300.964844 118.585938 C 298.796875 117.296875 299.898438 117.828125 297.890625 116.878906 C 290.007812 117.792969 267.589844 121.964844 264.570312 124.984375 C 263.761719 124.03125 260.285156 123.386719 260.960938 128.265625 C 260.960938 128.265625 259.320312 129.171875 257.316406 130.359375 C 256.246094 128.007812 252.839844 129.046875 253.183594 132.898438 C 252.835938 133.113281 252.488281 133.332031 252.140625 133.546875 C 250.910156 130.808594 248.527344 131.863281 248.199219 133.828125 C 247.941406 132.417969 247.34375 131.347656 246.214844 131.132812 C 243.519531 130.632812 243.703125 134.652344 244.648438 137.929688 C 244.332031 138.082031 244.007812 138.230469 243.679688 138.371094 C 243.738281 136.734375 243.773438 135.027344 242.753906 133.78125 C 240.898438 131.496094 237.46875 133.023438 238.113281 136.371094 C 236.789062 134.621094 233.5625 135.980469 234.65625 140.269531 C 234.367188 140.296875 232.308594 140.476562 232.019531 140.519531 C 231.910156 138.335938 231.242188 136.476562 229.179688 136.667969 C 227.242188 136.851562 227.144531 139.300781 227.390625 140.742188 C 227.425781 140.9375 227.464844 141.136719 227.515625 141.34375 C 226.65625 141.574219 225.8125 141.828125 224.972656 142.113281 C 224.808594 140.378906 224 138.105469 221.746094 138.460938 C 218.9375 138.910156 219.34375 142.132812 220.167969 143.988281 C 219.132812 144.414062 218.097656 144.714844 217.0625 144.925781 C 217.035156 141.652344 214.667969 140.050781 212.773438 140.476562 C 210.359375 141.03125 210.382812 143.160156 211.285156 145.496094 C 210 145.558594 208.707031 145.605469 207.398438 145.714844 C 207.304688 140.398438 200.804688 139.679688 202.503906 146.605469 C 201.550781 146.875 200.621094 147.199219 199.703125 147.546875 C 199.519531 141.515625 191.945312 142.167969 195.105469 149.441406 C 194.710938 149.605469 194.316406 149.765625 193.917969 149.929688 C 193.421875 147.140625 192.109375 143.402344 189.5625 145.261719 C 188.042969 146.375 188.730469 149.425781 189.292969 151.222656 C 188.480469 151.3125 187.679688 151.324219 186.875 151.285156 C 189.066406 144.273438 179.097656 142.703125 181.261719 150.535156 C 180.398438 150.398438 179.527344 150.273438 178.652344 150.1875 C 178.519531 148.6875 177.410156 145.964844 174.96875 146.105469 C 172.109375 146.265625 171.671875 148.351562 172.15625 150.789062 C 171.472656 150.988281 170.789062 151.210938 170.113281 151.453125 C 169.109375 145.425781 163.578125 147.375 164.632812 153.265625 C 164.148438 153.386719 163.660156 153.46875 163.175781 153.519531 C 163.445312 151.042969 163.570312 147.90625 161.347656 146.652344 C 158.855469 145.238281 155.835938 148 157.992188 153.214844 C 156.125 152.878906 157.058594 150.023438 154.867188 149.230469 C 153.738281 148.820312 152.40625 149.054688 151.671875 150.058594 C 151.347656 150.5 151.148438 150.953125 151.039062 151.417969 C 149.957031 147.53125 145.445312 148.679688 145.597656 152.394531 C 144.855469 152.550781 144.121094 152.71875 143.386719 152.867188 C 142.269531 148.148438 138.605469 149.484375 139.671875 153.335938 C 139.660156 153.296875 133.9375 152.929688 133.324219 152.671875 C 131.582031 151.9375 131.074219 150.78125 128.945312 150.917969 C 126.265625 151.09375 115.414062 153.066406 108.472656 153.707031 C 90.398438 155.382812 88.632812 155.382812 88.632812 155.382812 C 72.914062 178.527344 83.878906 212.949219 131.089844 229.339844 C 166.59375 241.664062 211.351562 239.722656 245.933594 222.273438 C 276.140625 207.027344 290.628906 185.863281 299.304688 158.160156 C 302.5 147.953125 306.300781 131.410156 300.964844 118.585938 " fill-opacity="1" fill-rule="nonzero"/><path fill="#654c3e" d="M 199.066406 165.816406 C 200.867188 164.726562 201.507812 165.8125 202.789062 166.992188 C 205.496094 169.359375 207.136719 166.429688 208.433594 165.308594 C 210.441406 163.449219 213.503906 165.265625 214.765625 165.648438 C 220.695312 167.585938 231.175781 163.878906 236.945312 161.414062 C 235.917969 161.644531 235.515625 161.710938 231.769531 162.757812 C 214.273438 167.484375 216.347656 164.003906 211.238281 163.421875 C 206.066406 162.925781 206.59375 169.238281 202.941406 165.773438 C 198.386719 161.507812 198.742188 168.871094 188.976562 167.8125 C 194.40625 169.574219 198.132812 166.375 199.066406 165.816406 " fill-opacity="1" fill-rule="nonzero"/><path fill="#654c3e" d="M 234.066406 158.132812 C 237.433594 156.519531 243.730469 158.179688 251.070312 152.980469 C 252.269531 152.128906 253.207031 151.269531 253.667969 150.738281 C 253.078125 151.085938 252.398438 151.613281 250.75 152.535156 C 241.867188 157.480469 237.808594 154.96875 233.25 157.367188 C 229.609375 159.335938 227.992188 162.222656 223.40625 162.757812 C 227.527344 163.535156 230.632812 159.734375 234.066406 158.132812 " fill-opacity="1" fill-rule="nonzero"/><path fill="#654c3e" d="M 200.464844 153.089844 C 202.832031 150.816406 207.042969 157.09375 204.242188 162.808594 C 203.128906 160.222656 200.703125 158.558594 200.117188 155.625 C 199.957031 154.84375 199.816406 153.710938 200.464844 153.089844 Z M 204.273438 163.605469 C 204.625 163.003906 205.199219 162.574219 205.546875 161.976562 C 206.21875 160.820312 206.257812 157.835938 205.535156 155.488281 C 204.890625 153.402344 202.921875 150.496094 200.414062 152.21875 C 198.867188 153.113281 199.226562 155.195312 199.707031 156.617188 C 200.613281 159.300781 203 161.121094 204.273438 163.605469 " fill-opacity="1" fill-rule="nonzero"/><path fill="#654c3e" d="M 214.839844 153.90625 C 215.851562 159.410156 213.847656 161.773438 213.847656 161.773438 C 212.289062 159.386719 210.902344 154.808594 210.882812 153.683594 C 210.84375 151.28125 214.097656 149.878906 214.839844 153.90625 Z M 214.078125 162.644531 C 215.691406 160.710938 216.070312 157.960938 215.644531 155.539062 C 215.351562 153.878906 215.074219 150.996094 213.097656 150.425781 C 211.609375 150 210.269531 151.257812 209.957031 152.632812 C 209.585938 154.273438 210.40625 156.28125 210.972656 157.777344 C 211.375 158.824219 213.382812 163.476562 214.078125 162.644531 " fill-opacity="1" fill-rule="nonzero"/><path fill="#654c3e" d="M 221.152344 149.113281 C 224.25 148.6875 224.757812 155.101562 223.742188 158.378906 C 221.378906 155 219.292969 153.609375 219.398438 151.367188 C 219.445312 150.363281 220.078125 149.261719 221.152344 149.113281 Z M 224.269531 159.421875 C 226.1875 154.308594 224.238281 148.464844 221.6875 148.15625 C 220.648438 148.027344 219.660156 148.578125 219.078125 149.425781 C 216.59375 153.027344 221.765625 156.9375 223.5 159.523438 C 223.710938 159.839844 224.140625 159.769531 224.269531 159.421875 " fill-opacity="1" fill-rule="nonzero"/><path fill="#654c3e" d="M 221.796875 175.621094 C 180.300781 188.585938 147.390625 169.089844 142.824219 167.175781 C 181.210938 193.082031 236.386719 183.871094 263.503906 150.449219 C 263.503906 150.449219 262.855469 151.023438 261.304688 152.480469 C 250.375 162.617188 236.851562 170.917969 221.796875 175.621094 " fill-opacity="1" fill-rule="nonzero"/><path fill="#654c3e" d="M 159.394531 229.636719 C 158.8125 229.539062 158.183594 229.355469 157.488281 229.171875 C 156.792969 228.984375 156.035156 228.785156 155.207031 228.5625 C 151.890625 227.695312 147.546875 226.25 142.074219 223.871094 C 136.625 221.460938 130.0625 217.941406 122.914062 212.34375 C 115.773438 206.742188 110.898438 201.371094 107.320312 196.941406 C 106.445312 195.8125 105.628906 194.761719 104.867188 193.777344 C 104.148438 192.761719 103.507812 191.796875 102.898438 190.914062 C 102.59375 190.472656 102.300781 190.042969 102.019531 189.636719 C 101.878906 189.429688 101.734375 189.230469 101.605469 189.03125 C 101.484375 188.828125 101.363281 188.625 101.246094 188.429688 C 100.769531 187.644531 100.335938 186.925781 99.941406 186.265625 C 99.539062 185.609375 99.175781 185.011719 98.847656 184.472656 C 98.535156 183.921875 98.28125 183.414062 98.039062 182.964844 C 97.550781 182.070312 97.179688 181.386719 96.902344 180.867188 C 96.328125 179.839844 96.113281 179.496094 96.113281 179.496094 C 96.113281 179.496094 96.339844 180.027344 96.894531 181.3125 C 97.179688 181.953125 97.546875 182.785156 98.011719 183.832031 C 98.128906 184.089844 98.246094 184.367188 98.386719 184.648438 C 98.535156 184.929688 98.691406 185.222656 98.855469 185.527344 C 99.183594 186.140625 99.542969 186.804688 99.933594 187.53125 C 100.128906 187.894531 100.335938 188.269531 100.546875 188.664062 C 100.761719 189.054688 100.964844 189.472656 101.234375 189.871094 C 101.75 190.683594 102.304688 191.554688 102.902344 192.488281 C 103.199219 192.957031 103.507812 193.441406 103.824219 193.9375 C 104.144531 194.4375 104.527344 194.914062 104.894531 195.425781 C 105.640625 196.441406 106.4375 197.519531 107.28125 198.664062 C 110.847656 203.085938 115.625 208.285156 122.394531 213.554688 C 123.269531 214.296875 124.210938 214.90625 125.09375 215.542969 C 125.984375 216.171875 126.855469 216.785156 127.707031 217.386719 C 129.472656 218.484375 131.148438 219.523438 132.761719 220.484375 C 134.421875 221.363281 135.992188 222.195312 137.480469 222.984375 C 139.019531 223.671875 140.46875 224.324219 141.839844 224.941406 C 142.515625 225.261719 143.203125 225.503906 143.867188 225.75 C 144.53125 225.996094 145.171875 226.234375 145.792969 226.464844 C 146.414062 226.691406 147.019531 226.914062 147.601562 227.128906 C 148.1875 227.335938 148.769531 227.484375 149.324219 227.652344 C 150.4375 227.976562 151.472656 228.28125 152.4375 228.5625 C 152.679688 228.628906 152.917969 228.699219 153.148438 228.765625 C 153.382812 228.816406 153.613281 228.871094 153.84375 228.921875 C 154.296875 229.019531 154.730469 229.113281 155.148438 229.203125 C 155.988281 229.378906 156.753906 229.546875 157.457031 229.695312 C 157.804688 229.769531 158.140625 229.835938 158.460938 229.902344 C 158.777344 229.972656 159.089844 229.996094 159.378906 230.042969 C 160.542969 230.195312 161.460938 230.316406 162.167969 230.40625 C 163.582031 230.582031 164.148438 230.632812 164.148438 230.632812 C 164.148438 230.632812 163.578125 230.511719 162.171875 230.207031 C 161.46875 230.0625 160.554688 229.875 159.394531 229.636719 " fill-opacity="1" fill-rule="nonzero"/><path fill="#654c3e" d="M 144.613281 228.1875 C 143.859375 227.9375 142.972656 227.558594 141.894531 227.15625 C 139.746094 226.34375 136.925781 225.136719 133.34375 223.351562 C 129.769531 221.550781 125.453125 219.085938 120.570312 215.457031 C 115.691406 211.820312 112.171875 208.488281 109.496094 205.761719 C 108.832031 205.070312 108.214844 204.425781 107.636719 203.824219 C 107.082031 203.199219 106.566406 202.617188 106.089844 202.078125 C 105.109375 201.019531 104.355469 200.054688 103.691406 199.265625 C 103.355469 198.871094 103.054688 198.511719 102.78125 198.183594 C 102.515625 197.851562 102.28125 197.550781 102.070312 197.28125 C 101.648438 196.746094 101.320312 196.339844 101.070312 196.035156 C 100.566406 195.425781 100.371094 195.226562 100.371094 195.226562 C 100.371094 195.226562 100.566406 195.5625 101.058594 196.363281 C 101.308594 196.765625 101.628906 197.28125 102.035156 197.933594 C 102.433594 198.59375 103 199.328125 103.632812 200.234375 C 103.960938 200.679688 104.296875 201.179688 104.695312 201.6875 C 105.097656 202.191406 105.53125 202.730469 105.996094 203.3125 C 106.902344 204.496094 108.0625 205.722656 109.324219 207.15625 C 111.953125 209.921875 115.371094 213.183594 119.996094 216.613281 C 120.597656 217.085938 121.230469 217.496094 121.828125 217.914062 C 122.433594 218.328125 123.023438 218.734375 123.597656 219.132812 C 124.78125 219.871094 125.90625 220.574219 126.988281 221.226562 C 128.085938 221.835938 129.132812 222.414062 130.121094 222.960938 C 131.136719 223.460938 132.09375 223.933594 133 224.375 C 136.664062 226.058594 139.546875 227.121094 141.75 227.78125 C 142.855469 228.105469 143.761719 228.410156 144.53125 228.582031 C 145.300781 228.761719 145.90625 228.898438 146.375 229.007812 C 147.308594 229.214844 147.683594 229.277344 147.683594 229.277344 C 147.683594 229.277344 147.320312 229.132812 146.410156 228.8125 C 145.957031 228.652344 145.363281 228.445312 144.613281 228.1875 " fill-opacity="1" fill-rule="nonzero"/><path fill="#654c3e" d="M 131.378906 225.320312 C 129.945312 224.726562 128.0625 223.882812 125.652344 222.679688 C 123.242188 221.46875 120.320312 219.847656 116.945312 217.527344 C 113.574219 215.207031 111.078125 213.121094 109.140625 211.421875 C 108.660156 210.992188 108.210938 210.589844 107.792969 210.21875 C 107.382812 209.832031 107.003906 209.472656 106.648438 209.140625 C 105.933594 208.484375 105.355469 207.894531 104.855469 207.414062 C 104.605469 207.171875 104.378906 206.949219 104.167969 206.753906 C 103.964844 206.546875 103.785156 206.367188 103.621094 206.203125 C 103.296875 205.878906 103.039062 205.632812 102.84375 205.453125 C 102.449219 205.089844 102.296875 204.976562 102.296875 204.976562 C 102.296875 204.976562 102.4375 205.199219 102.808594 205.71875 C 103.175781 206.234375 103.757812 207.0625 104.722656 208.203125 C 106.644531 210.46875 109.953125 214.238281 116.359375 218.664062 C 119.785156 221.007812 122.792969 222.574219 125.273438 223.6875 C 127.765625 224.792969 129.71875 225.492188 131.207031 225.933594 C 132.6875 226.394531 133.699219 226.609375 134.335938 226.738281 C 134.96875 226.871094 135.226562 226.90625 135.226562 226.90625 C 135.226562 226.90625 134.984375 226.792969 134.382812 226.546875 C 133.777344 226.300781 132.808594 225.929688 131.378906 225.320312 " fill-opacity="1" fill-rule="nonzero"/></svg>