<svg xmlns="http://www.w3.org/2000/svg" xmlns:xlink="http://www.w3.org/1999/xlink" width="500" zoomAndPan="magnify" viewBox="0 0 375 374.999991" height="500" preserveAspectRatio="xMidYMid meet" version="1.0"><defs><clipPath id="18f85f32bf"><path d="M 141 151 L 221 151 L 221 283.265625 L 141 283.265625 Z M 141 151 " clip-rule="nonzero"/></clipPath><clipPath id="7f3b8d0088"><path d="M 216 151 L 294.8125 151 L 294.8125 283.265625 L 216 283.265625 Z M 216 151 " clip-rule="nonzero"/></clipPath><clipPath id="18336040cb"><path d="M 142 115.265625 L 294.8125 115.265625 L 294.8125 193 L 142 193 Z M 142 115.265625 " clip-rule="nonzero"/></clipPath><clipPath id="7f0c87eaca"><path d="M 294.78125 91.859375 L 365.175781 91.859375 L 365.175781 172.859375 L 294.78125 172.859375 Z M 294.78125 91.859375 " clip-rule="nonzero"/></clipPath></defs><g clip-path="url(#18f85f32bf)"><path fill="#654c3e" d="M 218.230469 283.265625 C 217.964844 283.265625 217.703125 283.214844 217.460938 283.089844 L 142.847656 246.453125 C 141.972656 246.03125 141.625 244.984375 142.042969 244.109375 C 142.460938 243.234375 143.511719 242.882812 144.386719 243.304688 L 216.480469 278.703125 L 216.707031 191.363281 L 143.089844 155.230469 C 142.21875 154.808594 141.867188 153.761719 142.289062 152.886719 C 142.707031 152.011719 143.757812 151.660156 144.628906 152.082031 L 219.242188 188.71875 C 219.835938 189.019531 220.222656 189.628906 220.222656 190.292969 L 219.976562 281.515625 C 219.976562 282.113281 219.660156 282.671875 219.15625 283.003906 C 218.859375 283.179688 218.542969 283.265625 218.230469 283.265625 Z M 218.230469 283.265625 " fill-opacity="1" fill-rule="nonzero"/></g><g clip-path="url(#7f3b8d0088)"><path fill="#654c3e" d="M 218.230469 283.265625 C 217.914062 283.265625 217.582031 283.179688 217.300781 283.003906 C 216.796875 282.6875 216.480469 282.128906 216.480469 281.515625 L 216.726562 190.292969 C 216.726562 189.628906 217.109375 189.019531 217.703125 188.738281 L 291.828125 152.097656 C 292.371094 151.835938 293.015625 151.855469 293.523438 152.1875 C 294.03125 152.5 294.34375 153.058594 294.34375 153.671875 L 294.101562 244.894531 C 294.101562 245.558594 293.714844 246.171875 293.121094 246.453125 L 218.996094 283.089844 C 218.753906 283.195312 218.492188 283.265625 218.230469 283.265625 Z M 220.203125 191.378906 L 219.976562 278.703125 L 290.605469 243.792969 L 290.832031 156.46875 Z M 220.203125 191.378906 " fill-opacity="1" fill-rule="nonzero"/></g><g clip-path="url(#18336040cb)"><path fill="#654c3e" d="M 218.472656 192.042969 C 218.210938 192.042969 217.949219 191.992188 217.703125 191.867188 L 143.089844 155.230469 C 142.496094 154.929688 142.113281 154.320312 142.113281 153.65625 C 142.113281 152.992188 142.496094 152.378906 143.089844 152.082031 L 217.199219 115.441406 C 217.6875 115.195312 218.246094 115.195312 218.734375 115.441406 L 293.347656 152.082031 C 293.941406 152.378906 294.328125 152.992188 294.328125 153.65625 C 294.328125 154.320312 293.941406 154.929688 293.347656 155.230469 L 219.226562 191.867188 C 218.996094 191.972656 218.734375 192.042969 218.472656 192.042969 Z M 147.8125 153.636719 L 218.457031 188.335938 L 288.628906 153.65625 L 217.984375 118.957031 Z M 147.8125 153.636719 " fill-opacity="1" fill-rule="nonzero"/></g><path fill="#654c3e" d="M 240.601562 181.09375 C 240.339844 181.09375 240.074219 181.042969 239.832031 180.921875 L 165.21875 144.28125 C 164.625 143.984375 164.238281 143.371094 164.238281 142.707031 C 164.238281 142.042969 164.625 141.429688 165.21875 141.132812 L 195.089844 126.371094 C 195.578125 126.128906 196.136719 126.128906 196.625 126.371094 L 271.222656 163.011719 C 271.816406 163.308594 272.199219 163.921875 272.199219 164.585938 C 272.199219 165.25 271.816406 165.863281 271.222656 166.160156 L 241.351562 180.921875 C 241.125 181.042969 240.863281 181.09375 240.601562 181.09375 Z M 169.9375 142.707031 L 240.582031 177.40625 L 266.484375 164.601562 L 195.855469 129.90625 Z M 169.9375 142.707031 " fill-opacity="1" fill-rule="nonzero"/><path fill="#654c3e" d="M 240.601562 219.328125 C 240.285156 219.328125 239.972656 219.238281 239.691406 219.082031 C 239.167969 218.765625 238.851562 218.191406 238.851562 217.578125 L 238.851562 179.347656 C 238.851562 178.683594 239.238281 178.070312 239.832031 177.773438 L 269.699219 163.011719 C 270.242188 162.75 270.890625 162.785156 271.394531 163.097656 C 271.902344 163.414062 272.21875 163.972656 272.21875 164.585938 L 272.21875 201.785156 C 272.21875 202.433594 271.851562 203.027344 271.292969 203.324219 L 241.421875 219.117188 C 241.160156 219.273438 240.878906 219.328125 240.601562 219.328125 Z M 242.347656 180.429688 L 242.347656 214.675781 L 268.722656 200.734375 L 268.722656 167.402344 Z M 270.453125 201.785156 Z M 270.453125 201.785156 " fill-opacity="1" fill-rule="nonzero"/><path fill="#654c3e" d="M 135.105469 230.851562 C 134.144531 230.851562 133.355469 230.066406 133.355469 229.101562 C 133.355469 228.140625 134.144531 227.355469 135.105469 227.355469 L 156.898438 227.335938 C 157.859375 227.335938 158.648438 228.125 158.648438 229.085938 C 158.648438 230.046875 157.859375 230.835938 156.898438 230.835938 Z M 135.105469 230.851562 " fill-opacity="1" fill-rule="nonzero"/><path fill="#654c3e" d="M 72.410156 230.921875 C 71.449219 230.921875 70.664062 230.132812 70.664062 229.171875 C 70.664062 228.210938 71.449219 227.421875 72.410156 227.421875 L 118.761719 227.371094 C 119.722656 227.371094 120.511719 228.160156 120.511719 229.121094 C 120.511719 230.082031 119.722656 230.871094 118.761719 230.871094 Z M 72.410156 230.921875 " fill-opacity="1" fill-rule="nonzero"/><path fill="#654c3e" d="M 39.34375 230.957031 C 38.382812 230.957031 37.597656 230.167969 37.597656 229.207031 C 37.597656 228.246094 38.382812 227.457031 39.34375 227.457031 L 49.253906 227.441406 C 50.214844 227.441406 51 228.226562 51 229.191406 C 51 230.152344 50.214844 230.9375 49.253906 230.9375 Z M 39.34375 230.957031 " fill-opacity="1" fill-rule="nonzero"/><path fill="#654c3e" d="M 49.234375 211.125 C 48.273438 211.125 47.488281 210.335938 47.488281 209.375 C 47.488281 208.414062 48.273438 207.625 49.234375 207.625 L 138.214844 207.519531 C 139.175781 207.519531 139.964844 208.308594 139.964844 209.269531 C 139.964844 210.230469 139.175781 211.019531 138.214844 211.019531 Z M 49.234375 211.125 " fill-opacity="1" fill-rule="nonzero"/><path fill="#654c3e" d="M 34.957031 191.464844 C 33.996094 191.464844 33.207031 190.679688 33.207031 189.71875 C 33.207031 188.753906 33.996094 187.96875 34.957031 187.96875 L 101.003906 187.898438 C 101.964844 187.898438 102.753906 188.683594 102.753906 189.648438 C 102.753906 190.609375 101.964844 191.394531 101.003906 191.394531 Z M 34.957031 191.464844 " fill-opacity="1" fill-rule="nonzero"/><path fill="#654c3e" d="M 12.027344 191.5 C 11.0625 191.5 10.277344 190.714844 10.277344 189.753906 C 10.277344 188.789062 11.0625 188.003906 12.027344 188.003906 L 17.042969 188.003906 C 18.003906 188.003906 18.789062 188.789062 18.789062 189.753906 C 18.789062 190.714844 18.003906 191.5 17.042969 191.5 Z M 12.027344 191.5 " fill-opacity="1" fill-rule="nonzero"/><path fill="#654c3e" d="M 122.710938 191.378906 C 121.75 191.378906 120.964844 190.59375 120.964844 189.628906 C 120.964844 188.667969 121.75 187.882812 122.710938 187.882812 L 134.109375 187.863281 C 135.070312 187.863281 135.855469 188.652344 135.855469 189.613281 C 135.855469 190.574219 135.070312 191.363281 134.109375 191.363281 Z M 122.710938 191.378906 " fill-opacity="1" fill-rule="nonzero"/><path fill="#654c3e" d="M 79.753906 173.855469 C 78.789062 173.855469 78.003906 173.066406 78.003906 172.105469 C 78.003906 171.144531 78.789062 170.355469 79.753906 170.355469 L 145.941406 170.285156 C 146.902344 170.285156 147.6875 171.074219 147.6875 172.035156 C 147.6875 172.996094 146.902344 173.785156 145.941406 173.785156 Z M 79.753906 173.855469 " fill-opacity="1" fill-rule="nonzero"/><g clip-path="url(#7f0c87eaca)"><path fill="#654c3e" d="M 329.578125 97.4375 C 325.722656 96.539062 324.988281 95.792969 324.078125 91.933594 C 323.179688 95.792969 322.433594 96.527344 318.582031 97.4375 C 322.433594 98.335938 323.171875 99.078125 324.078125 102.9375 C 324.988281 99.078125 325.722656 98.34375 329.578125 97.4375 Z M 310.695312 134.992188 C 308.75 122.484375 307.179688 120.90625 294.675781 118.964844 C 307.179688 117.019531 308.753906 115.445312 310.695312 102.9375 C 312.636719 115.445312 314.210938 117.023438 326.710938 118.964844 C 314.210938 120.90625 312.636719 122.484375 310.695312 134.992188 Z M 333.625 109.648438 C 335.039062 138.65625 336.183594 139.804688 365.175781 141.21875 C 336.183594 142.628906 335.039062 143.777344 333.625 172.785156 C 332.214844 143.777344 331.066406 142.628906 302.074219 141.21875 C 331.066406 139.804688 332.214844 138.65625 333.625 109.648438 Z M 333.625 109.648438 " fill-opacity="1" fill-rule="nonzero"/></g></svg>