<svg xmlns="http://www.w3.org/2000/svg" xmlns:xlink="http://www.w3.org/1999/xlink" width="500" zoomAndPan="magnify" viewBox="0 0 375 374.999991" height="500" preserveAspectRatio="xMidYMid meet" version="1.0"><defs><clipPath id="a9919ea707"><path d="M 56 82 L 317 82 L 317 305.734375 L 56 305.734375 Z M 56 82 " clip-rule="nonzero"/></clipPath></defs><g clip-path="url(#a9919ea707)"><path fill="#654c3e" d="M 241.210938 215.816406 C 234.699219 217.039062 223.15625 213.4375 215.445312 211.570312 C 209.183594 210.054688 188.117188 215.429688 187.699219 210.15625 C 186.824219 206.820312 196.765625 206.417969 200.355469 206.464844 C 202.171875 206.480469 211.1875 205.71875 210.796875 203.84375 C 209.816406 202.117188 196.988281 201.191406 194.246094 200.90625 C 189.390625 200.386719 178.933594 201.539062 180.609375 194.320312 C 182.296875 191.238281 191.90625 194.421875 201.132812 193.6875 C 203.402344 193.523438 206.902344 195.097656 208.445312 193.734375 C 207.597656 192.039062 189.121094 186.472656 185.949219 185.867188 C 182.910156 185.289062 175.808594 183.921875 179.390625 179.136719 C 181.363281 176.523438 187.28125 178.371094 190.058594 179.113281 C 193.640625 180.066406 197.601562 180.476562 201.023438 181.535156 C 202.347656 181.964844 213.230469 186.945312 210.808594 182.648438 C 208.921875 179.277344 188.300781 171.804688 186.867188 169.042969 C 184.832031 159.621094 206.652344 170.042969 209.652344 171.664062 C 213.859375 173.949219 218.5 177.066406 223.136719 177.515625 C 226.726562 177.855469 231.710938 178.035156 233.960938 174.9375 C 236.515625 171.167969 225.597656 155.597656 231.886719 150.828125 C 239.054688 148.71875 235.339844 159.8125 244.648438 171.648438 C 249.382812 177.667969 249.902344 187.992188 254.914062 193.339844 C 259.269531 198.015625 277.207031 206.265625 291.753906 212.398438 C 310.046875 188.695312 320.535156 163.839844 314.175781 139.640625 C 296.789062 73.464844 214.859375 69.492188 186.449219 105.890625 C 158.039062 69.492188 76.113281 73.464844 58.722656 139.640625 C 54.292969 156.503906 58.046875 173.6875 66.917969 190.578125 C 82.027344 184.375 104.101562 174.59375 109.003906 169.335938 C 114.011719 163.988281 114.53125 153.664062 119.265625 147.644531 C 128.574219 135.808594 124.859375 124.714844 132.03125 126.824219 C 138.316406 131.59375 127.398438 147.164062 129.957031 150.933594 C 132.203125 154.03125 137.1875 153.851562 140.78125 153.511719 C 145.414062 153.066406 150.054688 149.945312 154.261719 147.660156 C 157.261719 146.039062 179.082031 135.617188 177.046875 145.039062 C 175.617188 147.800781 154.992188 155.273438 153.109375 158.644531 C 150.683594 162.941406 161.570312 157.960938 162.890625 157.53125 C 166.3125 156.472656 170.273438 156.0625 173.855469 155.109375 C 176.632812 154.367188 182.550781 152.519531 184.523438 155.132812 C 188.105469 159.917969 181.003906 161.285156 177.964844 161.863281 C 174.796875 162.46875 156.316406 168.035156 155.46875 169.730469 C 157.011719 171.09375 160.511719 169.519531 162.78125 169.683594 C 172.007812 170.417969 181.617188 167.234375 183.308594 170.316406 C 184.980469 177.535156 174.523438 176.382812 169.671875 176.902344 C 166.929688 177.1875 154.097656 178.113281 153.117188 179.839844 C 152.726562 181.714844 161.742188 182.476562 163.558594 182.460938 C 167.152344 182.414062 177.089844 182.816406 176.214844 186.152344 C 175.796875 191.425781 154.734375 186.050781 148.46875 187.566406 C 140.757812 189.433594 129.214844 193.039062 122.703125 191.8125 C 113.464844 190.070312 95.152344 202.746094 80.878906 212.050781 C 108.496094 248.003906 154.164062 281.335938 186.449219 305.742188 C 212.929688 285.726562 248.410156 259.707031 275.554688 231.160156 C 262.859375 222.894531 248.894531 214.367188 241.210938 215.816406 Z M 241.210938 215.816406 " fill-opacity="1" fill-rule="nonzero"/></g></svg>